<svg xmlns="http://www.w3.org/2000/svg" width="520" height="140" viewBox="0 0 520 140" role="img" aria-labelledby="title desc">
  <title id="title">Mixalyzer logo</title>
  <desc id="desc">A modern Mixalyzer wordmark with an optimization chart symbol.</desc>
  <defs>
    <linearGradient id="markGradient" x1="10" y1="16" x2="126" y2="124" gradientUnits="userSpaceOnUse">
      <stop offset="0" stop-color="#38D7C1"/>
      <stop offset="0.52" stop-color="#7C8CFF"/>
      <stop offset="1" stop-color="#F6C85F"/>
    </linearGradient>
    <filter id="shadow" x="-20%" y="-20%" width="140%" height="140%">
      <feDropShadow dx="0" dy="10" stdDeviation="12" flood-color="#020617" flood-opacity="0.32"/>
    </filter>
  </defs>
  <rect width="520" height="140" rx="28" fill="#07111A"/>
  <g filter="url(#shadow)">
    <rect x="26" y="24" width="92" height="92" rx="24" fill="url(#markGradient)"/>
    <path d="M49 88V65.5C49 61.9 53.4 60.1 56 62.7L69.7 76.4C71.3 78 73.9 78 75.5 76.4L89.3 62.6C91.8 60.1 96 61.9 96 65.4V88" fill="none" stroke="#07111A" stroke-width="9" stroke-linecap="round" stroke-linejoin="round"/>
    <path d="M49 97C62.7 97 73.4 92.8 82.6 84.5C90.3 77.5 98.1 73.9 108 73.9" fill="none" stroke="#07111A" stroke-width="8" stroke-linecap="round"/>
    <circle cx="108" cy="73.9" r="6.5" fill="#07111A"/>
  </g>
  <text x="142" y="73" fill="#F8FAFC" font-family="Inter, Helvetica, Arial, sans-serif" font-size="42" font-weight="800" letter-spacing="0">Mixalyzer</text>
  <text x="145" y="101" fill="#94A3B8" font-family="Inter, Helvetica, Arial, sans-serif" font-size="17" font-weight="500" letter-spacing="0">Marketing intelligence for budget optimization</text>
</svg>
