<svg width="256" height="256" viewBox="0 0 256 256" fill="none" xmlns="http://www.w3.org/2000/svg">
  <defs>
    <linearGradient id="bg" x1="24" y1="20" x2="226" y2="236" gradientUnits="userSpaceOnUse">
      <stop stop-color="#111C34"/>
      <stop offset="0.58" stop-color="#0A1427"/>
      <stop offset="1" stop-color="#060C19"/>
    </linearGradient>
    <linearGradient id="ring" x1="62" y1="54" x2="193" y2="200" gradientUnits="userSpaceOnUse">
      <stop stop-color="#7C8CFF"/>
      <stop offset="0.52" stop-color="#4DA4FF"/>
      <stop offset="1" stop-color="#3DE0C2"/>
    </linearGradient>
    <linearGradient id="accent" x1="128" y1="82" x2="190" y2="152" gradientUnits="userSpaceOnUse">
      <stop stop-color="#F8FAFC"/>
      <stop offset="1" stop-color="#C8D7FF"/>
    </linearGradient>
    <filter id="glow" x="40" y="40" width="176" height="176" filterUnits="userSpaceOnUse" color-interpolation-filters="sRGB">
      <feFlood flood-opacity="0" result="BackgroundImageFix"/>
      <feBlend mode="normal" in="SourceGraphic" in2="BackgroundImageFix" result="shape"/>
      <feGaussianBlur stdDeviation="10" result="effect1_foregroundBlur"/>
    </filter>
  </defs>
  <rect x="16" y="16" width="224" height="224" rx="56" fill="url(#bg)"/>
  <rect x="16" y="16" width="224" height="224" rx="56" stroke="rgba(255,255,255,0.10)" stroke-opacity="0.16"/>
  <g filter="url(#glow)">
    <circle cx="128" cy="128" r="62" stroke="url(#ring)" stroke-width="12"/>
    <circle cx="128" cy="128" r="34" stroke="url(#ring)" stroke-opacity="0.78" stroke-width="8"/>
  </g>
  <circle cx="128" cy="128" r="10" fill="#F8FAFC"/>
  <path d="M128 128L181 91" stroke="url(#accent)" stroke-width="12" stroke-linecap="round"/>
  <path d="M178 86L194 87.5L186.5 101.5" stroke="url(#accent)" stroke-width="10" stroke-linecap="round" stroke-linejoin="round"/>
  <path d="M72 177C88.5 155.5 111 143 128 141" stroke="#3DE0C2" stroke-opacity="0.82" stroke-width="9" stroke-linecap="round"/>
  <path d="M70 83C85 97 93 111 95 128" stroke="#7C8CFF" stroke-opacity="0.76" stroke-width="8" stroke-linecap="round"/>
</svg>
